<svg width="24" height="24" viewBox="0 0 24 24" fill="none" xmlns="http://www.w3.org/2000/svg">
<g clip-path="url(#clip0_6_357)">
<path d="M21.9529 16.8268C21.6125 16.6398 21.185 16.7642 20.9981 17.1045C20.8111 17.4448 20.9355 17.8723 21.2758 18.0593C22.1134 18.5194 22.5938 19.0295 22.5938 19.4588C22.5938 19.9838 21.8498 20.7976 19.7619 21.5069C17.6992 22.2078 14.9426 22.5937 12 22.5937C9.05742 22.5937 6.30084 22.2078 4.23811 21.5069C2.15016 20.7976 1.40625 19.9838 1.40625 19.4588C1.40625 19.0295 1.88663 18.5194 2.72419 18.0592C3.06455 17.8723 3.18886 17.4448 3.00187 17.1044C2.81489 16.7641 2.38753 16.6398 2.04708 16.8267C1.11323 17.3398 0 18.2129 0 19.4588C0 20.4138 0.656813 21.7754 3.78572 22.8385C5.99034 23.5875 8.90756 24 12 24C15.0924 24 18.0097 23.5875 20.2143 22.8385C23.3432 21.7754 24 20.4138 24 19.4588C24 18.2129 22.8868 17.3398 21.9529 16.8268Z" fill="black"/>
<path d="M6.6915 20.4905C8.11884 20.8937 10.0041 21.1158 12 21.1158C13.9959 21.1158 15.8812 20.8937 17.3085 20.4905C19.0547 19.9972 19.9402 19.2831 19.9402 18.3682C19.9402 17.4532 19.0547 16.7392 17.3085 16.246C16.9208 16.1365 16.4993 16.0404 16.051 15.9585C15.7992 16.3933 15.5441 16.8263 15.2859 17.2573C15.782 17.3317 16.2478 17.423 16.6708 17.5308C17.9559 17.8581 18.4254 18.2266 18.522 18.3682C18.4254 18.5099 17.956 18.8784 16.6709 19.2057C15.4545 19.5155 13.8895 19.6922 12.2413 19.708C12.161 19.7141 12.0805 19.7172 12 19.7173C11.919 19.7173 11.8386 19.7139 11.7587 19.708C10.1104 19.6922 8.54545 19.5156 7.3291 19.2057C6.04397 18.8784 5.57452 18.5099 5.478 18.3682C5.57452 18.2266 6.04402 17.8581 7.32914 17.5308C7.75214 17.4231 8.21794 17.3317 8.71411 17.2573C8.44744 16.812 8.19239 16.379 7.94897 15.9585C7.50075 16.0405 7.07911 16.1365 6.6915 16.246C4.94527 16.7392 4.05984 17.4533 4.05984 18.3682C4.05984 19.2831 4.94527 19.9972 6.6915 20.4905Z" fill="black"/>
<path d="M12 18.311C12.6259 18.311 13.1945 17.992 13.521 17.4578C15.809 13.7145 18.5363 8.78109 18.5363 6.5362C18.5363 2.93212 15.6041 0 12 0C8.39588 0 5.46375 2.93212 5.46375 6.5362C5.46375 8.78109 8.19108 13.7145 10.479 17.4578C10.8055 17.992 11.3741 18.311 12 18.311ZM9.3728 6.08742C9.3728 4.63884 10.5514 3.46031 12 3.46031C13.4486 3.46031 14.6272 4.63884 14.6272 6.08742C14.6272 7.53605 13.4486 8.71458 12 8.71458C10.5514 8.71458 9.3728 7.53609 9.3728 6.08742Z" fill="black"/>
</g>
<defs>
<clipPath id="clip0_6_357">
<rect width="24" height="24" fill="white"/>
</clipPath>
</defs>
</svg>
